REM DIRINDEX 1\2\6,1\2\7,1\2\8,1\2\9,1\3\10,1\3\11,1\4\12,1\4\13,1\4\14,1\5\15,1\5\16,1\5\17
REM DIRNAME folder01,folder02,folder03,folder04,folder05,folder06,folder07,folder08,folder09,folder10,folder11,folder12,folder13,folder14,folder15,folder16,folder17
TITLE ""
FILE "1400_2_sec14_1301_1315.mp3" MP3
  TRACK 01 AUDIO
    TITLE "0:"
    INDEX 01 00:00:00
  TRACK 02 AUDIO
    TITLE "12:cjc029_4221"
    INDEX 01 00:03:25
  TRACK 03 AUDIO
    TITLE "0:"
    INDEX 01 00:05:36
  TRACK 04 AUDIO
    TITLE "12:cjc029_4222"
    INDEX 01 00:06:08
  TRACK 05 AUDIO
    TITLE "0:"
    INDEX 01 00:07:31
  TRACK 06 AUDIO
    TITLE "13:cjc029_4223"
    INDEX 01 00:08:32
  TRACK 07 AUDIO
    TITLE "0:"
    INDEX 01 00:09:67
  TRACK 08 AUDIO
    TITLE "14:cjc029_4224"
    INDEX 01 00:09:71
  TRACK 09 AUDIO
    TITLE "0:"
    INDEX 01 00:12:07
  TRACK 10 AUDIO
    TITLE "13:cjc029_4225"
    INDEX 01 00:12:63
  TRACK 11 AUDIO
    TITLE "0:"
    INDEX 01 00:13:69
  TRACK 12 AUDIO
    TITLE "14:cjc029_4226"
    INDEX 01 00:13:73
  TRACK 13 AUDIO
    TITLE "0:"
    INDEX 01 00:16:24
  TRACK 14 AUDIO
    TITLE "13:cjc029_4227"
    INDEX 01 00:17:08
  TRACK 15 AUDIO
    TITLE "0:"
    INDEX 01 00:18:21
  TRACK 16 AUDIO
    TITLE "14:cjc029_4228"
    INDEX 01 00:18:25
  TRACK 17 AUDIO
    TITLE "0:"
    INDEX 01 00:20:37
  TRACK 18 AUDIO
    TITLE "13:cjc029_4229"
    INDEX 01 00:21:17
  TRACK 19 AUDIO
    TITLE "0:"
    INDEX 01 00:22:27
  TRACK 20 AUDIO
    TITLE "14:cjc029_4230"
    INDEX 01 00:22:30
  TRACK 21 AUDIO
    TITLE "0:"
    INDEX 01 00:23:36
  TRACK 22 AUDIO
    TITLE "13:cjc029_4231"
    INDEX 01 00:24:18
  TRACK 23 AUDIO
    TITLE "0:"
    INDEX 01 00:25:37
  TRACK 24 AUDIO
    TITLE "14:cjc029_4232"
    INDEX 01 00:25:41
  TRACK 25 AUDIO
    TITLE "0:"
    INDEX 01 00:28:04
  TRACK 26 AUDIO
    TITLE "13:cjc029_4233"
    INDEX 01 00:28:60
  TRACK 27 AUDIO
    TITLE "0:"
    INDEX 01 00:29:66
  TRACK 28 AUDIO
    TITLE "14:cjc029_4234"
    INDEX 01 00:29:72
  TRACK 29 AUDIO
    TITLE "0:"
    INDEX 01 00:32:45
  TRACK 30 AUDIO
    TITLE "13:cjc029_4235"
    INDEX 01 00:33:30
  TRACK 31 AUDIO
    TITLE "0:"
    INDEX 01 00:34:36
  TRACK 32 AUDIO
    TITLE "14:cjc029_4236"
    INDEX 01 00:34:42
  TRACK 33 AUDIO
    TITLE "0:"
    INDEX 01 00:37:24
  TRACK 34 AUDIO
    TITLE "13:cjc029_4237"
    INDEX 01 00:38:06
  TRACK 35 AUDIO
    TITLE "0:"
    INDEX 01 00:39:39
  TRACK 36 AUDIO
    TITLE "14:cjc029_4238"
    INDEX 01 00:39:41
  TRACK 37 AUDIO
    TITLE "0:"
    INDEX 01 00:40:64
  TRACK 38 AUDIO
    TITLE "13:cjc029_4239"
    INDEX 01 00:41:44
  TRACK 39 AUDIO
    TITLE "0:"
    INDEX 01 00:42:66
  TRACK 40 AUDIO
    TITLE "14:cjc029_4240"
    INDEX 01 00:42:70
  TRACK 41 AUDIO
    TITLE "0:"
    INDEX 01 00:45:73
  TRACK 42 AUDIO
    TITLE "13:cjc029_4241"
    INDEX 01 00:46:53
  TRACK 43 AUDIO
    TITLE "0:"
    INDEX 01 00:48:04
  TRACK 44 AUDIO
    TITLE "14:cjc029_4242"
    INDEX 01 00:48:06
  TRACK 45 AUDIO
    TITLE "0:"
    INDEX 01 00:52:39
  TRACK 46 AUDIO
    TITLE "13:cjc029_4243"
    INDEX 01 00:53:19
  TRACK 47 AUDIO
    TITLE "0:"
    INDEX 01 00:54:46
  TRACK 48 AUDIO
    TITLE "14:cjc029_4244"
    INDEX 01 00:54:52
  TRACK 49 AUDIO
    TITLE "0:"
    INDEX 01 00:57:21
  TRACK 50 AUDIO
    TITLE "13:cjc029_4245"
    INDEX 01 00:58:01
  TRACK 51 AUDIO
    TITLE "0:"
    INDEX 01 00:59:30
  TRACK 52 AUDIO
    TITLE "14:cjc029_4246"
    INDEX 01 00:59:34
  TRACK 53 AUDIO
    TITLE "0:"
    INDEX 01 01:04:09
  TRACK 54 AUDIO
    TITLE "13:cjc029_4247"
    INDEX 01 01:04:66
  TRACK 55 AUDIO
    TITLE "0:"
    INDEX 01 01:06:12
  TRACK 56 AUDIO
    TITLE "14:cjc029_4248"
    INDEX 01 01:06:20
  TRACK 57 AUDIO
    TITLE "0:"
    INDEX 01 01:07:57
  TRACK 58 AUDIO
    TITLE "13:cjc029_4249"
    INDEX 01 01:08:40
  TRACK 59 AUDIO
    TITLE "0:"
    INDEX 01 01:09:46
  TRACK 60 AUDIO
    TITLE "14:cjc029_4250"
    INDEX 01 01:09:50
  TRACK 61 AUDIO
    TITLE "0:"
    INDEX 01 01:11:70
  TRACK 62 AUDIO
    TITLE "13:cjc029_4251"
    INDEX 01 01:12:50
  TRACK 63 AUDIO
    TITLE "0:"
    INDEX 01 01:13:47
  TRACK 64 AUDIO
    TITLE "14:cjc029_4252"
    INDEX 01 01:13:51
  TRACK 65 AUDIO
    TITLE "0:"
    INDEX 01 01:15:48
